# xmcd
#
# Track frame offsets:
#	150
#	13098
#	27432
#	43227
#	60945
#	75739
#	89996
#	107742
#	124309
#	141064
#	154791
#	172749
#
# Disc length: 2504 seconds
#
# Revision: 0
# Processed by: cddbd v1.5.2PL0 Copyright (c) Steve Scherf et al.
# Submitted via: EasyCDDAExtractor 11.5.3.1
#
DISCID=9c09c60c
DTITLE=Channel Four - Jotain Parempaa
DYEAR=2009
DGENRE=
TTITLE0=Pelkkää Sinistä
TTITLE1=Arjen Satumaa
TTITLE2=Haaveiden Yö
TTITLE3=Anna Käpertyä Kainaloos
TTITLE4=Mennyt Mennyttä On
TTITLE5=Annukka
TTITLE6=Rhodos
TTITLE7=Saavuit Hiljaa
TTITLE8=Jotain Parempaa
TTITLE9=Vapauteen
TTITLE10=Joet Kairojen
TTITLE11=Kaunispään Tyttö
EXTD=
EXTT0=
EXTT1=
EXTT2=
EXTT3=
EXTT4=
EXTT5=
EXTT6=
EXTT7=
EXTT8=
EXTT9=
EXTT10=
EXTT11=
PLAYORDER=
